PathFileType	4	(X/Y/Z)	Patient5_TMGait_0pt45_1_right_08.trc.trc
DataRate	CameraRate	NumFrames	NumMarkers	Units	OrigDataRate	OrigDataStartFrame	OrigNumFrames
57.377049180328	57.377049180328	7	32	mm	57.377049180328	89	       141
Frame#	Time	R.ASIS			L.ASIS			Chest			R.Shoulder			Neck			L.Shoulder			L.Elbow			L.Wrist			R.Elbow			R.Wrist			L.Thigh.Superior			L.Thigh.Lateral			L.Thigh.Inferior			L.Patella			L.Shank.Superior			L.Shank.Lateral			L.Shank.Inferior			L.Heel			L.Midfoot.Lateral			L.Midfoot.Superior			L.Toe			R.Thigh.Superior			R.Thigh.Lateral			R.Thigh.Inferior			R.Patella			R.Shank.Superior			R.Shank.Lateral			R.Shank.Inferior			R.Heel			R.Midfoot.Lateral			R.Midfoot.Superior			R.Toe			
		X1	Y1	Z1	X2	Y2	Z2	X3	Y3	Z3	X4	Y4	Z4	X5	Y5	Z5	X6	Y6	Z6	X7	Y7	Z7	X8	Y8	Z8	X9	Y9	Z9	X10	Y10	Z10	X11	Y11	Z11	X12	Y12	Z12	X13	Y13	Z13	X14	Y14	Z14	X15	Y15	Z15	X16	Y16	Z16	X17	Y17	Z17	X18	Y18	Z18	X19	Y19	Z19	X20	Y20	Z20	X21	Y21	Z21	X22	Y22	Z22	X23	Y23	Z23	X24	Y24	Z24	X25	Y25	Z25	X26	Y26	Z26	X27	Y27	Z27	X28	Y28	Z28	X29	Y29	Z29	X30	Y30	Z30	X31	Y31	Z31	X32	Y32	Z32	

89	14.383714285714	1049.386942721047	1018.794777317454	547.534457077919	1084.333780801715	963.461145647387	305.261644787247	1140.027141923031	1450.489273668742	427.602975781853	1002.326947864273	1518.446158717686	562.068960387209	1029.681903178575	1576.399323815892	378.980852333741	1134.189496954373	1516.760753047289	223.221650942406	1117.096310668745	1197.700589150232	80.896710958281	1260.300259382639	948.168726868434	109.197891640376	869.951715225243	1206.220351523940	679.762138426000	1085.364846903953	1011.118514573078	672.368936528996	1101.548228786784	748.650307865684	307.801714070551	1030.958291874970	675.551151880881	268.228345383320	1101.785474659050	622.363180258780	337.260433116655	1101.917706165677	504.926430183346	349.048468073134	1052.634158347319	403.788588784466	373.261119927172	987.724313981382	331.541249421448	296.616005876353	1018.140005318555	281.666580291537	387.253268690820	883.097511640668	50.795969915022	397.116516052463	975.117678987622	26.937432619868	342.322251377006	1069.951690533915	89.240739710936	391.807264752397	1176.225128544908	45.730655374409	404.218346387469	1070.503739494703	793.542877800745	599.332903140696	984.831396859697	720.707040548685	653.909083773588	1079.387077164926	663.624644000075	606.761521561639	1080.402448239061	566.120709861314	656.683733064727	1027.696021239541	461.453720246636	622.090604224809	925.971326659674	417.154662767115	686.211478602367	984.303333121558	328.206226095027	628.380242047438	835.067412106105	128.311199624085	582.854843476505	882.864506597812	85.607333170483	674.692384391532	1000.613346904115	127.428556634708	687.742027399977	1088.669397225810	64.108554456502	715.278342147493	
90	14.401142857143	1046.954941146619	1019.209047631512	546.151146706683	1081.790678816974	963.265732845054	304.794437064859	1137.919896142015	1450.624933254917	425.495427913776	1000.706735339869	1518.944304902048	560.073735985507	1027.507334466839	1576.463811850292	376.784603088737	1131.857142263695	1516.318637735293	221.061134853590	1117.688715759799	1196.246700346280	80.714449111210	1262.865354567320	948.043208018861	110.589421095860	869.127731721468	1206.673188959145	678.592292427570	1083.684317504618	1010.708942730246	668.158746007840	1098.080702045909	748.375221874114	307.129821535760	1026.716779815695	675.747911931867	268.162381121648	1097.597209676519	621.996138542300	336.203901894541	1096.873454002783	504.341163458484	347.865555342280	1047.042315642474	403.545705290360	372.568786940823	981.072847889222	331.803004778028	296.392162597361	1011.864705568271	281.652578960277	386.819822093672	875.298215325726	50.939289443807	397.151196054684	967.278138413354	26.962475304544	342.364049263472	1062.221126843353	89.269291486516	391.621261439069	1168.408897298869	45.664336418469	404.149317333246	1068.344830139504	794.885106371294	599.463913942912	983.682681761659	721.851768359752	654.404289820927	1078.706139959388	665.751810228722	607.198318129326	1082.046988341607	569.530026529509	658.094412732548	1034.690545420708	463.910886293088	624.077089992037	935.011324592850	415.180118460235	688.143702434149	998.512116647319	328.702158104465	631.846777470712	860.116932165901	119.835231906199	588.321914417594	910.536555805799	80.552291952913	680.089115301247	1025.653707123833	129.433692055620	692.997427697205	1117.487581885814	71.638920822669	720.756416563150	
91	14.418571428571	1044.508268839108	1019.680183854506	545.130341654031	1079.055249969798	963.246373969231	304.527614505330	1135.609151516494	1450.692001858808	423.622260612780	998.877446588172	1519.528023249167	558.213781760717	1025.218049441282	1576.510069456084	374.713151582303	1129.425258769801	1515.712181606328	219.087970996565	1117.841484137861	1194.672602891115	80.760721182933	1264.792725551107	947.705559098038	112.168300189123	868.464716321371	1207.124797253888	677.719141688287	1082.372400094150	1010.577444416394	664.248916370514	1094.446211162071	748.154737721804	306.656919147246	1022.434365841061	676.045691089175	268.097124985746	1093.210198707030	621.707645250011	335.317826298893	1091.660862367291	503.835419780212	346.820578789260	1041.316613742394	403.361461573712	371.960503460043	974.384481006781	332.110069161225	296.197335950353	1005.548801710630	281.692048962502	386.468403430677	867.508061592987	51.116863856179	397.175478827722	959.444941923248	26.999774701591	342.405974728000	1054.512921081663	89.312088650012	391.428519860687	1160.605035121574	45.578976035630	404.085158246711	1066.931288129332	796.730667590315	599.966254407773	983.743302561623	723.038453076626	655.155986744426	1079.618534093070	668.377496184095	607.958080460536	1085.376630652294	573.186191456419	659.551286668625	1042.841451474184	466.820689746020	625.837914096193	945.186946054550	414.091844911507	689.947947698046	1012.991615487397	330.191109894496	634.618487132755	884.270537392846	114.196626982517	592.934374531078	937.167491693859	77.592364061116	684.055506612960	1049.655745195193	132.595881575978	696.549129611711	1144.691122515862	79.785228165438	723.734668389899	
92	14.436000000000	1042.064296070274	1020.188572269621	544.383832881524	1076.130952464316	963.398802164734	304.404101675974	1133.088871903358	1450.723081923474	421.995747610630	996.805645806847	1520.218328574278	556.494198450338	1022.807449113757	1576.564857852293	372.784994920941	1126.919105325553	1515.000150003726	217.339266385075	1117.543669511908	1193.044534282335	81.035683910043	1266.061748997024	947.205227903932	113.908905852022	867.816894325380	1207.618206837881	677.066207271101	1081.378507118943	1010.862368445147	660.738917374478	1090.618868800080	747.978013020485	306.399052220782	1018.061348900836	676.424588482255	268.052672974181	1088.576281517083	621.464194575210	334.639619963145	1086.208301094458	503.417198870594	345.947217367427	1035.405112473331	403.242313939173	371.458688235036	967.620951832877	332.454273199494	296.046488008006	999.149690263144	281.778267934980	386.214345123147	859.720681909187	51.309841976362	397.205249131841	951.613125244531	27.053358789617	342.450807892647	1046.819754487246	89.361279768355	391.243139429139	1152.811021268968	45.479637286906	404.023366425446	1066.535044914279	799.139647939222	600.778970087129	985.233560850458	724.331968016360	656.071761766677	1082.270001857732	671.539990506770	608.892089102172	1090.479149197653	577.101775276408	660.890694502560	1052.060692835509	470.101025509164	627.299715034659	956.324377647084	413.933257021725	691.550649247261	1027.463183823690	332.499302228865	636.643282877749	906.908885852096	111.127867939035	596.522152662573	962.025941961110	76.581728465909	686.727881440383	1072.082315721614	136.638836658412	698.652648006260	1169.697464820090	88.068580319059	724.829234448015	
93	14.453428571429	1039.627352417524	1020.684521663791	543.807173169194	1073.028212869272	963.701793289517	304.358023986076	1130.361748271604	1450.741527751874	420.610086050570	994.477546610427	1521.006360180835	554.930633333848	1020.258057459662	1576.640792941937	371.029768899027	1124.335353852711	1514.242731129930	215.838505802984	1116.803517166866	1191.427602820727	81.528420709300	1266.655493439282	946.583772572803	115.794068846540	867.037139185537	1208.176313817842	676.575058789317	1080.635611975935	1011.659896149524	657.724783929414	1086.592222222720	747.818619521432	306.346956698924	1013.551125476690	676.839176375039	268.065074254987	1083.670826902566	621.218881991995	334.192663964398	1080.464443713394	503.081260849420	345.276212940243	1029.274158267697	403.184633027922	371.090362418619	960.755351771454	332.819193722273	295.962212873520	992.626316323746	281.894838058784	386.072215514605	851.929681058360	51.495008907158	397.262009839085	943.777512754783	27.124896501259	342.505807506803	1039.130835385250	89.403657667174	391.086180070119	1145.024042400775	45.369857997402	403.962065323078	1067.298124194544	802.091655758855	601.747326616442	988.229789295147	725.784924863174	657.059545117481	1086.602327523115	675.216255006600	609.814783231468	1097.282514822611	581.279072428415	661.961515768083	1062.157125270518	473.660122265650	628.401474358081	968.194619183378	414.666650135759	692.925608156409	1041.656911383693	335.421120636402	637.916400991142	927.568139781354	110.220984639279	599.027475842429	984.583839846674	77.243681229544	688.307365266854	1092.566266624256	141.243294927682	699.561611552559	1192.144225566174	96.047429703562	724.579337089864	
94	14.470857142857	1037.208917487784	1021.110043397261	543.315585322814	1069.770796139632	964.119423763329	304.320233150463	1127.440649182261	1450.759240306985	419.443505332559	991.901740315965	1521.853902059264	553.548633595901	1017.546544021693	1576.735421135466	369.484746459171	1121.640677152431	1513.492834013929	214.590471397983	1115.643534857424	1189.876418441564	82.215620933290	1266.566364694980	945.872470209488	117.815078344013	865.996123730338	1208.796587766725	676.210787984074	1080.064210310576	1013.005898638988	655.293114943838	1082.380313459916	747.640583372010	306.471571955625	1008.870401398101	677.241341657017	268.170357389877	1078.492864657847	620.924993315075	333.981410952282	1074.407992828350	502.811177116403	344.827402464595	1022.913168080942	403.176323461217	370.879556855675	953.773675245271	333.184806538789	295.970611215576	985.946502608229	282.022209899949	386.051456742973	844.129628531856	51.656871526220	397.362514735920	935.933438828142	27.214412099002	342.580375661636	1031.433886332133	89.425985218787	390.979364298826	1137.241267251987	45.250417515291	403.901305619746	1069.208747491087	805.497587892836	602.682112232871	992.657465792570	727.432143516146	658.043602083388	1092.373825124376	679.328313486140	610.545026392728	1105.561365532108	585.707235550084	662.654117837568	1072.857133467222	477.408517597192	629.108940170995	980.530398049169	416.194516776409	694.093870571224	1055.325058605708	338.756811776895	638.480861289609	945.946498003249	111.015811902248	600.526934269878	1004.563643635336	79.220062261447	689.006790850895	1110.926932062730	146.099683725286	699.461554642477	1211.913490303560	103.391624769067	723.306924662546	
95	14.488285714286	1034.835465085718	1021.414796368543	542.859733723690	1066.396611051251	964.604169971075	304.228532020376	1124.348737889589	1450.778197202977	418.462865517843	989.110952656129	1522.702220687497	552.380165394230	1014.650972772003	1576.834465749829	368.187893910114	1118.778799688454	1512.790836517595	213.579904658888	1114.088671673839	1188.429508312408	83.062815406699	1265.798728569495	945.095878848866	119.968661113586	864.602778018810	1209.453866495411	675.963760402747	1079.578148144981	1014.866255964914	653.512696697682	1078.015964226184	747.407934656373	306.733728814457	1004.006321843485	677.593741976376	268.397128251561	1073.064351298872	620.548485935662	333.989979750892	1068.053871079032	502.584867493050	344.602525700797	1016.337175612922	403.200118887754	370.838675108271	946.675054172701	333.533915395617	296.094816991609	979.095686423881	282.143858194198	386.152231009178	836.317176872520	51.794097868726	397.512210070866	928.077648417790	27.320949957302	342.683155162959	1023.717994872341	89.421917780859	390.936696656804	1129.459717266229	45.119319794582	403.843462671357	1072.114566953311	809.219847183395	603.411995743413	998.309678100454	729.283049407476	658.970013287090	1099.213447661427	683.755663051168	610.941635821760	1114.969133581910	590.351988538593	662.909719391766	1083.838789125380	481.258990897646	629.416420433387	993.047442399003	418.379421449767	695.105908374987	1068.255247582370	342.331602961668	638.420276628751	961.893927455552	113.067060807234	601.224749087799	1021.935614589576	82.119356299655	689.018054436769	1127.155732352897	150.945122998069	698.452514142282	1229.108427220219	109.915167077195	721.078628301635	
